<svg xmlns="http://www.w3.org/2000/svg" width="1120" height="600" viewBox="0 0 1120 600">
<rect width="100%" height="100%" fill="#ffffff"/>
<text x="24" y="34" font-size="22" font-family="Arial" font-weight="700">TWC-Related Runs (60ep)</text>
<text x="24" y="58" font-size="13" font-family="Arial" fill="#555">60ep nuScenes-mini; active TWC validity fixed - success curve</text>
<line x1="70" y1="526.0" x2="860" y2="526.0" stroke="#e6e6e6"/>
<text x="60" y="530.0" font-size="11" font-family="Arial" text-anchor="end" fill="#666">10</text>
<line x1="70" y1="437.2" x2="860" y2="437.2" stroke="#e6e6e6"/>
<text x="60" y="441.2" font-size="11" font-family="Arial" text-anchor="end" fill="#666">20</text>
<line x1="70" y1="348.4" x2="860" y2="348.4" stroke="#e6e6e6"/>
<text x="60" y="352.4" font-size="11" font-family="Arial" text-anchor="end" fill="#666">30</text>
<line x1="70" y1="259.6" x2="860" y2="259.6" stroke="#e6e6e6"/>
<text x="60" y="263.6" font-size="11" font-family="Arial" text-anchor="end" fill="#666">40</text>
<line x1="70" y1="170.8" x2="860" y2="170.8" stroke="#e6e6e6"/>
<text x="60" y="174.8" font-size="11" font-family="Arial" text-anchor="end" fill="#666">50</text>
<line x1="70" y1="82.0" x2="860" y2="82.0" stroke="#e6e6e6"/>
<text x="60" y="86.0" font-size="11" font-family="Arial" text-anchor="end" fill="#666">60</text>
<line x1="-1.8" y1="82" x2="-1.8" y2="526" stroke="#f0f0f0"/>
<text x="-1.8" y="562" font-size="11" font-family="Arial" text-anchor="middle" fill="#666">0</text>
<line x1="141.8" y1="82" x2="141.8" y2="526" stroke="#f0f0f0"/>
<text x="141.8" y="562" font-size="11" font-family="Arial" text-anchor="middle" fill="#666">10</text>
<line x1="285.5" y1="82" x2="285.5" y2="526" stroke="#f0f0f0"/>
<text x="285.5" y="562" font-size="11" font-family="Arial" text-anchor="middle" fill="#666">20</text>
<line x1="429.1" y1="82" x2="429.1" y2="526" stroke="#f0f0f0"/>
<text x="429.1" y="562" font-size="11" font-family="Arial" text-anchor="middle" fill="#666">30</text>
<line x1="572.7" y1="82" x2="572.7" y2="526" stroke="#f0f0f0"/>
<text x="572.7" y="562" font-size="11" font-family="Arial" text-anchor="middle" fill="#666">40</text>
<line x1="716.4" y1="82" x2="716.4" y2="526" stroke="#f0f0f0"/>
<text x="716.4" y="562" font-size="11" font-family="Arial" text-anchor="middle" fill="#666">50</text>
<line x1="860.0" y1="82" x2="860.0" y2="526" stroke="#f0f0f0"/>
<text x="860.0" y="562" font-size="11" font-family="Arial" text-anchor="middle" fill="#666">60</text>
<line x1="70" y1="526" x2="860" y2="526" stroke="#999"/>
<line x1="70" y1="82" x2="70" y2="526" stroke="#999"/>
<text x="465.0" y="588" font-size="12" font-family="Arial" text-anchor="middle">epoch</text>
<polyline points="70.0,253.4 141.8,205.5 213.6,208.7 285.5,234.0 357.3,155.4 429.1,180.3 500.9,150.5 572.7,202.1 644.5,166.7 716.4,169.0 788.2,178.5 860.0,162.0" fill="none" stroke="#2f5f9f" stroke-width="2.1"/>
<circle cx="70.0" cy="253.4" r="3" fill="#2f5f9f" opacity="0.9"/>
<circle cx="141.8" cy="205.5" r="3" fill="#2f5f9f" opacity="0.9"/>
<circle cx="213.6" cy="208.7" r="3" fill="#2f5f9f" opacity="0.9"/>
<circle cx="285.5" cy="234.0" r="3" fill="#2f5f9f" opacity="0.9"/>
<circle cx="357.3" cy="155.4" r="3" fill="#2f5f9f" opacity="0.9"/>
<circle cx="429.1" cy="180.3" r="3" fill="#2f5f9f" opacity="0.9"/>
<circle cx="500.9" cy="150.5" r="3" fill="#2f5f9f" opacity="0.9"/>
<circle cx="572.7" cy="202.1" r="3" fill="#2f5f9f" opacity="0.9"/>
<circle cx="644.5" cy="166.7" r="3" fill="#2f5f9f" opacity="0.9"/>
<circle cx="716.4" cy="169.0" r="3" fill="#2f5f9f" opacity="0.9"/>
<circle cx="788.2" cy="178.5" r="3" fill="#2f5f9f" opacity="0.9"/>
<circle cx="860.0" cy="162.0" r="3" fill="#2f5f9f" opacity="0.9"/>
<line x1="884" y1="82" x2="908" y2="82" stroke="#2f5f9f" stroke-width="2.2"/>
<text x="916" y="86" font-size="12" font-family="Arial">SeqTrack baseline</text>
<polyline points="70.0,156.9 141.8,227.8 213.6,209.5 285.5,247.1 357.3,172.2 429.1,177.4 500.9,154.3 572.7,191.1 644.5,141.5 716.4,149.4 788.2,168.8 860.0,159.9" fill="none" stroke="#c85a3a" stroke-width="2.1"/>
<circle cx="70.0" cy="156.9" r="3" fill="#c85a3a" opacity="0.9"/>
<circle cx="141.8" cy="227.8" r="3" fill="#c85a3a" opacity="0.9"/>
<circle cx="213.6" cy="209.5" r="3" fill="#c85a3a" opacity="0.9"/>
<circle cx="285.5" cy="247.1" r="3" fill="#c85a3a" opacity="0.9"/>
<circle cx="357.3" cy="172.2" r="3" fill="#c85a3a" opacity="0.9"/>
<circle cx="429.1" cy="177.4" r="3" fill="#c85a3a" opacity="0.9"/>
<circle cx="500.9" cy="154.3" r="3" fill="#c85a3a" opacity="0.9"/>
<circle cx="572.7" cy="191.1" r="3" fill="#c85a3a" opacity="0.9"/>
<circle cx="644.5" cy="141.5" r="3" fill="#c85a3a" opacity="0.9"/>
<circle cx="716.4" cy="149.4" r="3" fill="#c85a3a" opacity="0.9"/>
<circle cx="788.2" cy="168.8" r="3" fill="#c85a3a" opacity="0.9"/>
<circle cx="860.0" cy="159.9" r="3" fill="#c85a3a" opacity="0.9"/>
<line x1="884" y1="104" x2="908" y2="104" stroke="#c85a3a" stroke-width="2.2"/>
<text x="916" y="108" font-size="12" font-family="Arial">A1 order</text>
<polyline points="70.0,185.7 141.8,347.7 213.6,271.0 285.5,230.0 357.3,158.5 429.1,219.6 500.9,151.3 572.7,173.8 644.5,151.8 716.4,146.3 788.2,142.8 860.0,160.5" fill="none" stroke="#3d8b62" stroke-width="2.1"/>
<circle cx="70.0" cy="185.7" r="3" fill="#3d8b62" opacity="0.9"/>
<circle cx="141.8" cy="347.7" r="3" fill="#3d8b62" opacity="0.9"/>
<circle cx="213.6" cy="271.0" r="3" fill="#3d8b62" opacity="0.9"/>
<circle cx="285.5" cy="230.0" r="3" fill="#3d8b62" opacity="0.9"/>
<circle cx="357.3" cy="158.5" r="3" fill="#3d8b62" opacity="0.9"/>
<circle cx="429.1" cy="219.6" r="3" fill="#3d8b62" opacity="0.9"/>
<circle cx="500.9" cy="151.3" r="3" fill="#3d8b62" opacity="0.9"/>
<circle cx="572.7" cy="173.8" r="3" fill="#3d8b62" opacity="0.9"/>
<circle cx="644.5" cy="151.8" r="3" fill="#3d8b62" opacity="0.9"/>
<circle cx="716.4" cy="146.3" r="3" fill="#3d8b62" opacity="0.9"/>
<circle cx="788.2" cy="142.8" r="3" fill="#3d8b62" opacity="0.9"/>
<circle cx="860.0" cy="160.5" r="3" fill="#3d8b62" opacity="0.9"/>
<line x1="884" y1="126" x2="908" y2="126" stroke="#3d8b62" stroke-width="2.2"/>
<text x="916" y="130" font-size="12" font-family="Arial">A1 order+TWC</text>
<polyline points="70.0,364.3 141.8,159.1 213.6,224.2 285.5,252.1 357.3,167.7 429.1,221.8 500.9,171.2 572.7,160.6 644.5,157.1 716.4,169.1 788.2,178.3 860.0,162.3" fill="none" stroke="#7a5195" stroke-width="2.1"/>
<circle cx="70.0" cy="364.3" r="3" fill="#7a5195" opacity="0.9"/>
<circle cx="141.8" cy="159.1" r="3" fill="#7a5195" opacity="0.9"/>
<circle cx="213.6" cy="224.2" r="3" fill="#7a5195" opacity="0.9"/>
<circle cx="285.5" cy="252.1" r="3" fill="#7a5195" opacity="0.9"/>
<circle cx="357.3" cy="167.7" r="3" fill="#7a5195" opacity="0.9"/>
<circle cx="429.1" cy="221.8" r="3" fill="#7a5195" opacity="0.9"/>
<circle cx="500.9" cy="171.2" r="3" fill="#7a5195" opacity="0.9"/>
<circle cx="572.7" cy="160.6" r="3" fill="#7a5195" opacity="0.9"/>
<circle cx="644.5" cy="157.1" r="3" fill="#7a5195" opacity="0.9"/>
<circle cx="716.4" cy="169.1" r="3" fill="#7a5195" opacity="0.9"/>
<circle cx="788.2" cy="178.3" r="3" fill="#7a5195" opacity="0.9"/>
<circle cx="860.0" cy="162.3" r="3" fill="#7a5195" opacity="0.9"/>
<line x1="884" y1="148" x2="908" y2="148" stroke="#7a5195" stroke-width="2.2"/>
<text x="916" y="152" font-size="12" font-family="Arial">A2 order-dyn</text>
<polyline points="70.0,294.5 141.8,213.1 213.6,401.5 285.5,380.4 357.3,310.4 429.1,375.3 500.9,335.8 572.7,357.2 644.5,358.3 716.4,369.5 788.2,363.6 860.0,364.1" fill="none" stroke="#d9862c" stroke-width="2.1"/>
<circle cx="70.0" cy="294.5" r="3" fill="#d9862c" opacity="0.9"/>
<circle cx="141.8" cy="213.1" r="3" fill="#d9862c" opacity="0.9"/>
<circle cx="213.6" cy="401.5" r="3" fill="#d9862c" opacity="0.9"/>
<circle cx="285.5" cy="380.4" r="3" fill="#d9862c" opacity="0.9"/>
<circle cx="357.3" cy="310.4" r="3" fill="#d9862c" opacity="0.9"/>
<circle cx="429.1" cy="375.3" r="3" fill="#d9862c" opacity="0.9"/>
<circle cx="500.9" cy="335.8" r="3" fill="#d9862c" opacity="0.9"/>
<circle cx="572.7" cy="357.2" r="3" fill="#d9862c" opacity="0.9"/>
<circle cx="644.5" cy="358.3" r="3" fill="#d9862c" opacity="0.9"/>
<circle cx="716.4" cy="369.5" r="3" fill="#d9862c" opacity="0.9"/>
<circle cx="788.2" cy="363.6" r="3" fill="#d9862c" opacity="0.9"/>
<circle cx="860.0" cy="364.1" r="3" fill="#d9862c" opacity="0.9"/>
<line x1="884" y1="170" x2="908" y2="170" stroke="#d9862c" stroke-width="2.2"/>
<text x="916" y="174" font-size="12" font-family="Arial">A2 dyn+TWC .05</text>
<polyline points="70.0,346.0 141.8,380.4 213.6,407.9 285.5,379.3 357.3,380.5 429.1,400.9 500.9,416.4 572.7,425.3 644.5,410.7 716.4,410.5 788.2,414.0 860.0,411.6" fill="none" stroke="#4d7c8a" stroke-width="2.1"/>
<circle cx="70.0" cy="346.0" r="3" fill="#4d7c8a" opacity="0.9"/>
<circle cx="141.8" cy="380.4" r="3" fill="#4d7c8a" opacity="0.9"/>
<circle cx="213.6" cy="407.9" r="3" fill="#4d7c8a" opacity="0.9"/>
<circle cx="285.5" cy="379.3" r="3" fill="#4d7c8a" opacity="0.9"/>
<circle cx="357.3" cy="380.5" r="3" fill="#4d7c8a" opacity="0.9"/>
<circle cx="429.1" cy="400.9" r="3" fill="#4d7c8a" opacity="0.9"/>
<circle cx="500.9" cy="416.4" r="3" fill="#4d7c8a" opacity="0.9"/>
<circle cx="572.7" cy="425.3" r="3" fill="#4d7c8a" opacity="0.9"/>
<circle cx="644.5" cy="410.7" r="3" fill="#4d7c8a" opacity="0.9"/>
<circle cx="716.4" cy="410.5" r="3" fill="#4d7c8a" opacity="0.9"/>
<circle cx="788.2" cy="414.0" r="3" fill="#4d7c8a" opacity="0.9"/>
<circle cx="860.0" cy="411.6" r="3" fill="#4d7c8a" opacity="0.9"/>
<line x1="884" y1="192" x2="908" y2="192" stroke="#4d7c8a" stroke-width="2.2"/>
<text x="916" y="196" font-size="12" font-family="Arial">A2 dyn+TWC .01</text>
</svg>