<svg xmlns="http://www.w3.org/2000/svg" width="1120" height="436" viewBox="0 0 1120 436">
<rect width="100%" height="100%" fill="#ffffff"/>
<text x="24" y="34" font-size="22" font-family="Arial" font-weight="700">A3 / Gate Variants (60ep)</text>
<text x="24" y="58" font-size="13" font-family="Arial" fill="#555">60ep nuScenes-mini plus latest retests - final scores, baseline included</text>
<line x1="230.0" y1="74" x2="230.0" y2="384" stroke="#e6e6e6"/>
<text x="230.0" y="412" font-size="11" font-family="Arial" text-anchor="middle" fill="#666">0</text>
<line x1="351.4" y1="74" x2="351.4" y2="384" stroke="#e6e6e6"/>
<text x="351.4" y="412" font-size="11" font-family="Arial" text-anchor="middle" fill="#666">10</text>
<line x1="472.9" y1="74" x2="472.9" y2="384" stroke="#e6e6e6"/>
<text x="472.9" y="412" font-size="11" font-family="Arial" text-anchor="middle" fill="#666">20</text>
<line x1="594.3" y1="74" x2="594.3" y2="384" stroke="#e6e6e6"/>
<text x="594.3" y="412" font-size="11" font-family="Arial" text-anchor="middle" fill="#666">30</text>
<line x1="715.7" y1="74" x2="715.7" y2="384" stroke="#e6e6e6"/>
<text x="715.7" y="412" font-size="11" font-family="Arial" text-anchor="middle" fill="#666">40</text>
<line x1="837.1" y1="74" x2="837.1" y2="384" stroke="#e6e6e6"/>
<text x="837.1" y="412" font-size="11" font-family="Arial" text-anchor="middle" fill="#666">50</text>
<line x1="958.6" y1="74" x2="958.6" y2="384" stroke="#e6e6e6"/>
<text x="958.6" y="412" font-size="11" font-family="Arial" text-anchor="middle" fill="#666">60</text>
<line x1="1080.0" y1="74" x2="1080.0" y2="384" stroke="#e6e6e6"/>
<text x="1080.0" y="412" font-size="11" font-family="Arial" text-anchor="middle" fill="#666">70</text>
<line x1="230" y1="384" x2="1080" y2="384" stroke="#999"/>
<line x1="849.1" y1="74" x2="849.1" y2="384" stroke="#2f5f9f" stroke-dasharray="5 4" stroke-width="1.4"/>
<line x1="958.1" y1="74" x2="958.1" y2="384" stroke="#c85a3a" stroke-dasharray="5 4" stroke-width="1.4"/>
<rect x="230" y="64" width="12" height="12" fill="#2f5f9f"/><text x="248" y="75" font-size="12" font-family="Arial">success final</text>
<rect x="370" y="64" width="12" height="12" fill="#c85a3a"/><text x="388" y="75" font-size="12" font-family="Arial">precision final</text>
<line x1="530" y1="70" x2="558" y2="70" stroke="#777" stroke-dasharray="5 4"/><text x="566" y="75" font-size="12" font-family="Arial">baseline line</text>
<text x="218" y="106" font-size="12" font-family="Arial" text-anchor="end">SeqTrack baseline</text>
<rect x="230" y="89" width="619.1" height="12" fill="#2f5f9f" opacity="0.88"/>
<text x="854.1" y="99" font-size="11" font-family="Arial" fill="#333">50.99</text>
<rect x="230" y="104" width="728.1" height="12" fill="#c85a3a" opacity="0.88"/>
<text x="963.1" y="114" font-size="11" font-family="Arial" fill="#333">59.96</text>
<text x="218" y="148" font-size="12" font-family="Arial" text-anchor="end">A2 order-dyn seed42</text>
<rect x="230" y="131" width="618.8" height="12" fill="#2f5f9f" opacity="0.88"/>
<text x="853.8" y="141" font-size="11" font-family="Arial" fill="#333">50.96</text>
<rect x="230" y="146" width="768.8" height="12" fill="#c85a3a" opacity="0.88"/>
<text x="1003.8" y="156" font-size="11" font-family="Arial" fill="#333">63.31</text>
<text x="218" y="190" font-size="12" font-family="Arial" text-anchor="end">P5 full</text>
<rect x="230" y="173" width="378.8" height="12" fill="#2f5f9f" opacity="0.88"/>
<text x="613.8" y="183" font-size="11" font-family="Arial" fill="#333">31.19</text>
<rect x="230" y="188" width="387.2" height="12" fill="#c85a3a" opacity="0.88"/>
<text x="622.2" y="198" font-size="11" font-family="Arial" fill="#333">31.89</text>
<text x="218" y="232" font-size="12" font-family="Arial" text-anchor="end">A3 gate-safe</text>
<rect x="230" y="215" width="586.7" height="12" fill="#2f5f9f" opacity="0.88"/>
<text x="821.7" y="225" font-size="11" font-family="Arial" fill="#333">48.32</text>
<rect x="230" y="230" width="666.2" height="12" fill="#c85a3a" opacity="0.88"/>
<text x="901.2" y="240" font-size="11" font-family="Arial" fill="#333">54.87</text>
<text x="218" y="274" font-size="12" font-family="Arial" text-anchor="end">A3 conf-res old</text>
<rect x="230" y="257" width="378.5" height="12" fill="#2f5f9f" opacity="0.88"/>
<text x="613.5" y="267" font-size="11" font-family="Arial" fill="#333">31.17</text>
<rect x="230" y="272" width="375.4" height="12" fill="#c85a3a" opacity="0.88"/>
<text x="610.4" y="282" font-size="11" font-family="Arial" fill="#333">30.92</text>
<text x="218" y="316" font-size="12" font-family="Arial" text-anchor="end">A3 best-e14 retest</text>
<rect x="230" y="299" width="340.7" height="12" fill="#2f5f9f" opacity="0.88"/>
<text x="575.7" y="309" font-size="11" font-family="Arial" fill="#333">28.06</text>
<rect x="230" y="314" width="457.7" height="12" fill="#c85a3a" opacity="0.88"/>
<text x="692.7" y="324" font-size="11" font-family="Arial" fill="#333">37.70</text>
<text x="218" y="358" font-size="12" font-family="Arial" text-anchor="end">A3 conf-res rerun</text>
<rect x="230" y="341" width="389.9" height="12" fill="#2f5f9f" opacity="0.88"/>
<text x="624.9" y="351" font-size="11" font-family="Arial" fill="#333">32.11</text>
<rect x="230" y="356" width="387.0" height="12" fill="#c85a3a" opacity="0.88"/>
<text x="622.0" y="366" font-size="11" font-family="Arial" fill="#333">31.87</text>
</svg>